<svg width="24" height="24" viewBox="0 0 24 24" fill="none" xmlns="http://www.w3.org/2000/svg">
<g clip-path="url(#clip0_11_3541)">
<path d="M5.85574 4.87213L6.02799 16.9058C6.04909 18.3801 6.65496 19.7855 7.71231 20.813C8.76966 21.8405 10.1919 22.4059 11.6661 22.3848C13.1403 22.3637 14.5458 21.7579 15.5733 20.7005C16.6008 19.6431 17.1662 18.2209 17.1451 16.7467L16.9728 4.713C16.9588 3.73019 16.5549 2.79322 15.85 2.10821C15.1451 1.4232 14.1969 1.04627 13.2141 1.06034C12.2313 1.07441 11.2943 1.47832 10.6093 2.18322C9.9243 2.88813 9.54737 3.83627 9.56144 4.81909L9.74033 16.8592C9.74736 17.3507 9.94932 17.8191 10.3018 18.1616C10.6542 18.5041 11.1283 18.6926 11.6197 18.6856C12.1111 18.6785 12.5796 18.4766 12.9221 18.1241C13.2646 17.7717 13.4531 17.2976 13.446 16.8062L13.2804 5.69574" stroke="#002145" stroke-width="2" stroke-linecap="round" stroke-linejoin="round"/>
</g>
<defs>
<clipPath id="clip0_11_3541">
<rect width="24" height="24" fill="white"/>
</clipPath>
</defs>
</svg>
