<svg width="40" height="40" viewBox="0 0 40 40" fill="none" xmlns="http://www.w3.org/2000/svg">
<path d="M36.6667 31.0586C36.6667 34.8881 29.2042 37.9899 20 37.9899C10.7959 37.9899 3.33337 34.8881 3.33337 31.0586V24.0822C4.37921 25.1514 5.86462 26.0386 7.51671 26.7248C10.7917 28.0868 15.2084 28.8925 20 28.8925C24.7917 28.8925 29.2084 28.0868 32.4834 26.7265C34.1355 26.0386 35.6209 25.1496 36.6667 24.0822V31.0586Z" fill="#002145"/>
<path d="M20 18.4962C24.7917 18.4962 29.2084 17.6905 32.4834 16.3302C34.1355 15.6423 35.6209 14.7533 36.6667 13.6859V20.6623C36.6667 21.5287 32.9459 23.4192 31.0855 24.4017C28.3292 25.5471 24.4125 26.294 20 26.294C15.5875 26.294 11.6709 25.5489 8.91462 24.4017C6.45837 23.3794 3.33337 21.5287 3.33337 20.6623V13.6859C4.37921 14.7551 5.86462 15.6423 7.51671 16.3285C10.7917 17.6905 15.2084 18.4962 20 18.4962Z" fill="#002145"/>
<path d="M31.0847 14.0041C28.3285 15.1495 24.4118 15.8963 19.9993 15.8963C15.5868 15.8963 11.6701 15.1512 8.91389 14.0041C7.84098 13.654 5.42848 12.5433 3.75348 10.7481C3.61206 10.5973 3.50917 10.4241 3.45113 10.239C3.39309 10.054 3.38113 9.86103 3.41598 9.672C3.4639 9.41554 3.53056 9.15042 3.61598 8.9858C5.05765 5.76967 11.8451 3.33331 19.9993 3.33331C28.1535 3.33331 34.941 5.76967 36.3826 8.9858C36.4681 9.15042 36.5347 9.41554 36.5826 9.672C36.6175 9.86103 36.6055 10.054 36.5475 10.239C36.4894 10.4241 36.3866 10.5973 36.2451 10.7481C34.5701 12.5433 32.1576 13.654 31.0847 14.0041Z" fill="#002145"/>
</svg>
